<svg width="185" height="24" viewBox="0 0 185 24" fill="none" xmlns="http://www.w3.org/2000/svg">
<path d="M102.44 12.015C102.44 8.22561 103.521 5.27655 105.685 3.16547C107.85 1.05439 110.861 0 114.725 0C118.589 0 121.735 1.03597 123.878 3.11022C126.021 5.18446 127.09 8.08978 127.09 11.8239C127.09 14.5358 126.623 16.7597 125.686 18.4955C124.749 20.2314 123.396 21.5827 121.629 22.5473C119.858 23.5119 117.654 23.9954 115.015 23.9954C112.376 23.9954 110.111 23.5787 108.352 22.7453C106.594 21.9119 105.168 20.5928 104.076 18.7879C102.983 16.983 102.438 14.7246 102.438 12.0127L102.44 12.015ZM109.792 12.0472C109.792 14.3908 110.238 16.0737 111.13 17.0958C112.022 18.1203 113.238 18.6314 114.774 18.6314C116.311 18.6314 117.576 18.1295 118.442 17.1281C119.308 16.1266 119.74 14.3263 119.74 11.7295C119.74 9.54475 119.29 7.94935 118.386 6.94101C117.482 5.93266 116.257 5.42849 114.708 5.42849C113.16 5.42849 112.037 5.93957 111.137 6.96403C110.24 7.98849 109.79 9.68057 109.79 12.0449L109.792 12.0472Z" fill="white"/>
<path d="M130.125 12.015C130.125 8.22561 131.206 5.27655 133.371 3.16547C135.535 1.05439 138.549 0 142.41 0C146.272 0 149.42 1.03597 151.563 3.11022C153.707 5.18446 154.776 8.08978 154.776 11.8239C154.776 14.5358 154.308 16.7597 153.371 18.4955C152.434 20.2314 151.082 21.5827 149.314 22.5473C147.544 23.5119 145.339 23.9954 142.701 23.9954C140.062 23.9954 137.796 23.5787 136.038 22.7453C134.279 21.9119 132.854 20.5928 131.761 18.7879C130.668 16.983 130.123 14.7246 130.123 12.0127L130.125 12.015ZM137.478 12.0472C137.478 14.3908 137.924 16.0737 138.816 17.0958C139.708 18.1203 140.923 18.6314 142.46 18.6314C143.997 18.6314 145.262 18.1295 146.128 17.1281C146.994 16.1266 147.426 14.3263 147.426 11.7295C147.426 9.54475 146.975 7.94935 146.071 6.94101C145.167 5.93266 143.942 5.42849 142.394 5.42849C140.846 5.42849 139.722 5.93957 138.823 6.96403C137.926 7.98849 137.475 9.68057 137.475 12.0449L137.478 12.0472Z" fill="white"/>
<path d="M158.516 0H166.118V9.0682L174.081 0H184.193L175.214 9.05899L184.596 24H175.233L170.045 14.1306L166.118 18.1433V24H158.516V0Z" fill="white"/>
<path d="M77.4297 0H91.6619C94.034 0 95.8561 0.573237 97.1259 1.71971C98.3957 2.86619 99.0306 4.28432 99.0306 5.9764C99.0306 7.39453 98.5774 8.61237 97.6711 9.62763C97.0669 10.3045 96.1841 10.8386 95.0205 11.2322C96.7884 11.6466 98.0888 12.3603 98.922 13.3686C99.7552 14.377 100.173 15.6478 100.173 17.1741C100.173 18.4173 99.8755 19.5361 99.2831 20.5306C98.6907 21.5229 97.8788 22.3102 96.8497 22.8881C96.2125 23.2472 95.2495 23.5096 93.9631 23.6731C92.252 23.8918 91.1167 24 90.5573 24H77.4321V0H77.4297ZM85.1005 9.41353H88.4072C89.5944 9.41353 90.4181 9.21554 90.883 8.81496C91.348 8.41669 91.5793 7.84115 91.5793 7.08835C91.5793 6.39079 91.348 5.84518 90.883 5.45151C90.4181 5.05784 89.6109 4.86216 88.4591 4.86216H85.1028V9.41353H85.1005ZM85.1005 18.8432H88.976C90.2859 18.8432 91.2088 18.6176 91.7445 18.164C92.2827 17.7105 92.5494 17.1027 92.5494 16.3384C92.5494 15.6294 92.285 15.0584 91.7516 14.6279C91.2206 14.1974 90.2883 13.981 88.9571 13.981H85.0981V18.8432H85.1005Z" fill="white"/>
<path d="M13.5926 9.13957L14.9214 5.57583H25.8352L27.9145 0H8.95474L0 23.9977H8.04841L11.6242 14.4092H20.9471L22.9132 9.13957H13.5926Z" fill="white"/>
<path d="M35.7396 17.6875L42.3388 0H34.3258L25.3711 23.9977H44.987L47.3425 17.6875H35.7396Z" fill="white"/>
<path d="M47.2402 0.0527344H55.6474L60.5827 8.11259L65.5274 0.0527344H73.8897L64.3661 13.9371V23.9422H56.7803V13.9371L47.2402 0.0527344Z" fill="white"/>
</svg>
