<svg id="Layer_1" data-name="Layer 1" xmlns="http://www.w3.org/2000/svg" viewBox="0 0 11 11"><defs><style>.cls-1{fill:#787878;}</style></defs><title>아이콘셋</title><path class="cls-1" d="M5.56,5.88a.05.05,0,0,1,0,0h0l-1-.73h0L0,8.8a.46.46,0,0,0,.43.3H10.54A.45.45,0,0,0,11,8.79L6.63,5.11Z"/><path class="cls-1" d="M10.76,2a.51.51,0,0,0-.22-.06H.46A.37.37,0,0,0,.25,2L5.52,5.75Z"/><path class="cls-1" d="M.14,2A.45.45,0,0,0,0,2.36V8.64H0L4.36,5.07Z"/><path class="cls-1" d="M10.87,2.05,6.74,5,11,8.64h0V2.36A.44.44,0,0,0,10.87,2.05Z"/></svg>